<!DOCTYPE svg PUBLIC "-//W3C//DTD SVG 1.1//EN" "http://www.w3.org/Graphics/SVG/1.1/DTD/svg11.dtd">
<!-- Uploaded to: SVG Repo, www.svgrepo.com, Transformed by: SVG Repo Mixer Tools -->
<svg version="1.1" id="Layer_1" xmlns="http://www.w3.org/2000/svg" xmlns:xlink="http://www.w3.org/1999/xlink" viewBox="0 0 504.4 504.4" xml:space="preserve" width="90px" height="90px" fill="#b5afde" stroke="#b5afde">
<g id="SVGRepo_bgCarrier" stroke-width="0"/>
<g id="SVGRepo_tracerCarrier" stroke-linecap="round" stroke-linejoin="round"/>
<g id="SVGRepo_iconCarrier"> <rect x="180.4" y="404.4" style="fill:#AEB1B4;" width="140" height="48"/> <path style="fill:#E8E3E3;" d="M496.4,356.4H8.4V370c0,16.8,12,30.4,28.4,30.4h431.6c16.4,0,28.4-13.2,28.4-30.4v-14.8 C496.4,356.4,496.4,356.4,496.4,356.4z M252.4,387.2c-5.6,0-10-4.4-10-10s4.4-10,10-10s10,4.4,10,10S257.6,387.2,252.4,387.2z"/> <path style="fill:#00b8f5;" d="M28.4,64.4v264h444v-264H28.4z"/> <path style="fill:#676767;" d="M6.4,69.2v283.2c0,0,492,4,492,0V69.2c0-16.4-13.6-28.8-30.4-28.8H36.4C20,40.4,6.4,52.8,6.4,69.2z M28.4,331.2V64h448v267.2c0,1.2-0.8,1.2-2,1.2h-2h-442h-2V331.2z"/> <path style="fill:#CCCCCC;" d="M28.4,331.2v2h2C29.2,333.2,28.4,332.4,28.4,331.2z"/> <g> <path style="fill:#F4EFEF;" d="M109.2,212.4c-10,0-18,8-18,18s8,18,18,18s18-8,18-18S119.2,212.4,109.2,212.4z"/> <path style="fill:#F4EFEF;" d="M228.8,226c-10,0-18,8-18,18s8,18,18,18s18-8,18-18S238.8,226,228.8,226z"/> <path style="fill:#F4EFEF;" d="M348.4,123.2c-10,0-18,8-18,18s8,18,18,18s18-8,18-18S358.4,123.2,348.4,123.2z"/> </g> <g> <path style="fill:#CCCCCC;" d="M144.4,463.2v2h2C145.2,465.2,144.4,464.4,144.4,463.2z"/> <circle style="fill:#CCCCCC;" cx="252.4" cy="377.2" r="6"/> </g> <rect x="148.4" y="448.4" style="fill:#E8E3E3;" width="204" height="12"/> <path d="M109.2,250c-10.8,0-20-8.8-20-20s8.8-20,20-20s20,8.8,20,20S120.4,250,109.2,250z M109.2,218.4c-6.4,0-12,5.2-12,12 s5.2,12,12,12s12-5.2,12-12S116,218.4,109.2,218.4z"/> <path d="M228.8,264c-10.8,0-20-8.8-20-20s8.8-20,20-20c10.8,0,20,8.8,20,20S240,264,228.8,264z M228.8,232c-6.4,0-12,5.2-12,12 s5.2,12,12,12s12-5.2,12-12S235.6,232,228.8,232z"/> <path d="M348.4,161.2c-10.8,0-20-8.8-20-20c0-10.8,8.8-20,20-20c10.8,0,20,8.8,20,20C368.4,152,359.6,161.2,348.4,161.2z M348.4,129.2c-6.4,0-12,5.2-12,12s5.2,12,12,12s12-5.2,12-12S355.2,129.2,348.4,129.2z"/> <path d="M241.6,235.6c-1.2,0-2.4-0.4-3.2-1.2c-1.6-1.6-1.2-4,0.4-5.6l79.2-69.2c1.6-1.6,4-1.2,5.6,0.4s1.2,4-0.4,5.6L244,234.8 C243.6,235.2,242.8,235.6,241.6,235.6z"/> <path d="M197.2,246.4h-0.4l-69.2-10c-2-0.4-3.6-2.4-3.2-4.4s2.4-3.6,4.4-3.2l69.2,10c2,0.4,3.6,2.4,3.2,4.4 C200.8,244.8,198.8,246.4,197.2,246.4z"/> <path d="M34,324.8c-0.8,0-2-0.4-2.4-0.8c-1.6-1.6-2-4-0.4-5.6l55.2-66c1.6-1.6,4-2,5.6-0.4s2,4,0.4,5.6l-55.2,66 C36,324,35.2,324.8,34,324.8z"/> <path d="M364.4,136.8c-1.2,0-2.8-0.8-3.6-2c-1.2-2-0.4-4.4,1.6-5.6L469.2,66c2-1.2,4.4-0.4,5.6,1.6s0.4,4.4-1.6,5.6l-106.8,63.2 C365.6,136.8,365.2,136.8,364.4,136.8z"/> <path d="M468,408.4H36.4c-19.6,0-36.4-17.2-36.4-38V71.6C0,52,16.4,36,36.4,36H468c20,0,36.4,16,36.4,35.6v298.8 C504.4,390.8,487.6,408.4,468,408.4z M36.8,44.4c-16,0-28.4,12-28.4,27.6v298.8c0,16,13.2,30,28.4,30h431.6c15.2,0,28.4-14,28.4-30 l0,0V72c0-15.6-12.4-27.6-28.4-27.6H36.8z"/> <path d="M496.4,360.4H4.4c-2.4,0-4-1.6-4-4s1.6-4,4-4h492c2.4,0,4,1.6,4,4S498.8,360.4,496.4,360.4z"/> <path d="M472.4,336.4h-440c-2.4,0-4-1.6-4-4v-268c0-2.4,1.6-4,4-4h380c2.4,0,4,1.6,4,4s-1.6,4-4,4h-376v260h432v-260h-12 c-2.4,0-4-1.6-4-4s1.6-4,4-4h16c2.4,0,4,1.6,4,4v268C476.4,334.4,474.8,336.4,472.4,336.4z"/> <path d="M176.4,448.4c-2.4,0-4-1.6-4-4v-40c0-2.4,1.6-4,4-4s4,1.6,4,4v40C180.4,446.4,178.8,448.4,176.4,448.4z"/> <path d="M320.4,448.4c-2.4,0-4-1.6-4-4v-40c0-2.4,1.6-4,4-4s4,1.6,4,4v40C324.4,446.4,322.8,448.4,320.4,448.4z"/> <path d="M352.4,468.4h-208c-2.4,0-4-1.6-4-4v-16c0-2.4,1.6-4,4-4h144c2.4,0,4,1.6,4,4s-1.6,4-4,4h-140v8h200v-8h-24 c-2.4,0-4-1.6-4-4s1.6-4,4-4h28c2.4,0,4,1.6,4,4v16C356.4,466.4,354.8,468.4,352.4,468.4z"/> <path d="M252.4,389.2c-6.8,0-12-5.2-12-12s5.2-12,12-12s12,5.2,12,12S258.8,389.2,252.4,389.2z M252.4,373.2c-2.4,0-4,1.6-4,4 s1.6,4,4,4s4-1.6,4-4S254.4,373.2,252.4,373.2z"/> </g>
</svg>