<!DOCTYPE svg PUBLIC "-//W3C//DTD SVG 1.1//EN" "http://www.w3.org/Graphics/SVG/1.1/DTD/svg11.dtd">
<!-- Uploaded to: SVG Repo, www.svgrepo.com, Transformed by: SVG Repo Mixer Tools -->
<svg height="220px" width="220px" version="1.1" id="Layer_1" xmlns="http://www.w3.org/2000/svg" xmlns:xlink="http://www.w3.org/1999/xlink" viewBox="-153.6 -153.6 819.20 819.20" xml:space="preserve" fill="#7a4d4d" stroke="#7a4d4d" stroke-width="0.0051200099999999995" transform="rotate(0)">
<g id="SVGRepo_bgCarrier" stroke-width="0" transform="translate(0,0), scale(1)">
<path transform="translate(-153.6, -153.6), scale(25.6)" d="M16,29.645063654830057C18.556912972850125,29.96109922115148,21.116410587640228,28.701783435007478,23.130237162405745,27.094865591221566C25.04021838113189,25.57081037210501,25.59564744621067,23.04815422151581,26.875791234238136,20.96680743427018C28.377893573893857,18.524584999574827,31.604466995947334,16.65086452525127,31.307897605249213,13.799056597667533C31.013256998402944,10.965795833924107,27.67106685597015,9.61320101500299,25.50295623850076,7.7656415455982195C23.658074049008654,6.19352177842934,21.825235652025004,4.720347955733054,19.580594833399918,3.805613868257119C17.130497772464878,2.807152430388997,14.464212256951505,1.3882153970216347,11.961869195677984,2.247389450754909C9.468229442406088,3.1035752425938132,8.627756805815993,6.1238370920984195,6.936916427564931,8.146793380435007C5.283749204550382,10.124676729144962,2.3258512312945965,11.435695751286346,2.133466199142216,14.006293426489034C1.9400826265815616,16.59023333327484,4.551148186117688,18.420285136342077,6.00765395977626,20.56335153272736C7.2064853085687295,22.32728218442462,8.340873049810526,24.027517449797177,9.919160643561574,25.461970731802634C11.777427695249374,27.150888063276398,13.507869055613062,29.337035175675936,16,29.645063654830057" fill="#38a9f0" strokewidth="0"/>
</g>
<g id="SVGRepo_tracerCarrier" stroke-linecap="round" stroke-linejoin="round" stroke="#CCCCCC" stroke-width="8.192015999999999"/>
<g id="SVGRepo_iconCarrier"> <path style="fill:#CAD1D8;" d="M24,16h464c13.254,0,24,10.745,24,24v432c0,13.254-10.745,24-24,24H24C10.745,496,0,485.255,0,472V40 C0,26.745,10.745,16,24,16z"/> <g> <circle style="fill:#9BA7AF;" cx="24.002" cy="47.995" r="7.998"/> <circle style="fill:#9BA7AF;" cx="56.002" cy="47.995" r="7.998"/> <circle style="fill:#9BA7AF;" cx="88.002" cy="47.995" r="7.998"/> </g> <path style="fill:#FFFFFF;" d="M24,80h464c4.418,0,8,3.582,8,8v384c0,4.418-3.582,8-8,8H24c-4.418,0-8-3.582-8-8V88 C16,83.582,19.582,80,24,80z"/> <path style="fill:#E2E5E7;" d="M120,40h368c4.418,0,8,3.582,8,8l0,0c0,4.418-3.582,8-8,8H120c-4.418,0-8-3.582-8-8l0,0 C112,43.582,115.582,40,120,40z"/> <g> <path style="fill:#CAD1D8;" d="M144,232.001h176c4.418,0,8,3.582,8,8l0,0c0,4.418-3.582,8.001-8,8.001H144 c-4.418,0-8.001-3.582-8.001-8.001l0,0C136.001,235.582,139.582,232.001,144,232.001z"/> <path style="fill:#CAD1D8;" d="M144,264h136c4.418,0,8,3.582,8,8l0,0c0,4.418-3.582,8-8,8H144c-4.418,0-8.001-3.582-8.001-8l0,0 C136.001,267.582,139.582,264,144,264z"/> <path style="fill:#CAD1D8;" d="M144,312h176c4.418,0,8,3.582,8,8l0,0c0,4.418-3.582,8-8,8H144c-4.418,0-8.001-3.582-8.001-8l0,0 C136.001,315.582,139.582,312,144,312z"/> <path style="fill:#CAD1D8;" d="M144,344h136c4.418,0,8,3.582,8,8l0,0c0,4.418-3.582,8-8,8H144c-4.418,0-8.001-3.582-8.001-8l0,0 C136.001,347.582,139.582,344,144,344z"/> </g> <path style="fill:#EE2C39;" d="M392,232.001h32c13.254,0,24,10.745,24,24.001l0,0c0,13.254-10.745,24-24,24h-32 c-13.254,0-24-10.745-24-24l0,0C368,242.746,378.745,232.001,392,232.001z"/> <path style="fill:#785cad;" d="M24,80h464c4.418,0,8,3.582,8,8v64l0,0H16l0,0V88C16,83.582,19.582,80,24,80z"/> <circle style="fill:#ABE1FA;" cx="256" cy="152.002" r="39.998"/> <path style="fill:#a2a9ae;" d="M289.2,174.24c-1.252-2.926-3.449-5.348-6.24-6.88l-11.44-6.88c-1.305-0.764-2.703-1.356-4.16-1.76 v-5.12c7.034-6.252,7.668-17.022,1.417-24.056c-6.252-7.034-17.022-7.668-24.056-1.417c-7.034,6.252-7.668,17.022-1.417,24.056 c0.444,0.499,0.917,0.972,1.417,1.417v5.12c-1.457,0.404-2.856,0.995-4.16,1.76l-11.44,6.88c-2.79,1.531-4.987,3.954-6.24,6.88 c12.354,18.314,37.216,23.144,55.53,10.79C282.666,182.159,286.329,178.495,289.2,174.24z"/> <circle style="fill:#FFFFFF;" cx="423.998" cy="256" r="15.995"/> <g> <circle style="fill:#CAD1D8;" cx="96" cy="248.002" r="15.995"/> <circle style="fill:#CAD1D8;" cx="96" cy="327.998" r="15.995"/> <circle style="fill:#CAD1D8;" cx="96" cy="408.002" r="15.995"/> </g> <path style="fill:#3CB54A;" d="M392,312h32c13.254,0,24,10.745,24,24l0,0c0,13.254-10.745,24-24,24h-32c-13.254,0-24-10.745-24-24 l0,0C368,322.746,378.745,312,392,312z"/> <circle style="fill:#FFFFFF;" cx="391.998" cy="335.995" r="15.995"/> <g> <path style="fill:#CAD1D8;" d="M144,392h176c4.418,0,8,3.582,8,8l0,0c0,4.418-3.582,8-8,8H144c-4.418,0-8.001-3.582-8.001-8l0,0 C136.001,395.582,139.582,392,144,392z"/> <path style="fill:#CAD1D8;" d="M144,424h136c4.418,0,8,3.582,8,8l0,0c0,4.418-3.582,8-8,8H144c-4.418,0-8.001-3.582-8.001-8l0,0 C136.001,427.582,139.582,424,144,424z"/> </g> <path style="fill:#3CB54A;" d="M392,392h32c13.254,0,24,10.745,24,24l0,0c0,13.254-10.745,24-24,24h-32c-13.254,0-24-10.745-24-24 l0,0C368,402.746,378.745,392,392,392z"/> <circle style="fill:#FFFFFF;" cx="391.998" cy="416" r="15.995"/> </g>
</svg>